<svg xmlns="http://www.w3.org/2000/svg" version="1.1" xmlns:xlink="http://www.w3.org/1999/xlink" xmlns:svgjs="http://svgjs.dev/svgjs" width="500" height="500"><svg xmlns="http://www.w3.org/2000/svg" xmlns:xlink="http://www.w3.org/1999/xlink" width="500" zoomAndPan="magnify" viewBox="0 0 375 374.999991" height="500" preserveAspectRatio="xMidYMid meet" version="1.0"><defs><g></g></defs><rect x="-37.5" width="450" fill="#ffffff" y="-37.499999" height="449.999989" fill-opacity="1"></rect><rect x="-37.5" width="450" fill="#dfd9b6" y="-37.499999" height="449.999989" fill-opacity="1"></rect><g fill="#ffffff" fill-opacity="1"><g transform="translate(36.503908, 319.07534)"><g><path d="M 252.375 -91.59375 C 252.375 -103.320312 250.175781 -111.851562 245.78125 -117.1875 C 241.382812 -122.519531 235.984375 -125.984375 229.578125 -127.578125 C 223.179688 -129.179688 216.515625 -129.984375 209.578125 -129.984375 L 183.984375 -129.984375 L 183.984375 -133.59375 L 289.984375 -133.59375 L 289.984375 -129.984375 C 287.316406 -129.984375 285.515625 -127.984375 284.578125 -123.984375 C 283.640625 -119.984375 283.035156 -115.25 282.765625 -109.78125 C 282.503906 -104.320312 281.84375 -99.457031 280.78125 -95.1875 C 275.976562 -73.59375 267.109375 -55.59375 254.171875 -41.1875 C 241.242188 -26.789062 225.910156 -15.992188 208.171875 -8.796875 C 190.441406 -1.597656 171.78125 1.796875 152.1875 1.390625 C 132.59375 0.992188 113.660156 -3.066406 95.390625 -10.796875 C 77.128906 -18.523438 61.0625 -30.125 47.1875 -45.59375 C 33.320312 -61.0625 23.328125 -80.394531 17.203125 -103.59375 C 12.128906 -122.519531 10.925781 -141.25 13.59375 -159.78125 C 16.257812 -178.3125 22.191406 -195.507812 31.390625 -211.375 C 40.597656 -227.25 52.53125 -240.984375 67.1875 -252.578125 C 81.851562 -264.179688 98.65625 -272.515625 117.59375 -277.578125 C 135.71875 -282.640625 153.710938 -283.972656 171.578125 -281.578125 C 189.453125 -279.179688 206.1875 -273.78125 221.78125 -265.375 C 237.382812 -256.976562 250.914062 -245.976562 262.375 -232.375 L 252.78125 -197.1875 L 249.1875 -197.1875 C 243.050781 -209.71875 235.445312 -221.378906 226.375 -232.171875 C 217.3125 -242.972656 207.179688 -252.238281 195.984375 -259.96875 C 184.785156 -267.707031 172.648438 -272.976562 159.578125 -275.78125 C 146.515625 -278.582031 132.785156 -278.113281 118.390625 -274.375 C 101.328125 -269.84375 87.128906 -261.773438 75.796875 -250.171875 C 64.460938 -238.578125 55.863281 -224.976562 50 -209.375 C 44.132812 -193.78125 40.867188 -177.453125 40.203125 -160.390625 C 39.535156 -143.328125 41.203125 -126.925781 45.203125 -111.1875 C 50.535156 -91.726562 58.398438 -75 68.796875 -61 C 79.191406 -47 91.1875 -35.796875 104.78125 -27.390625 C 118.382812 -18.992188 132.648438 -13.394531 147.578125 -10.59375 C 162.515625 -7.800781 177.179688 -7.738281 191.578125 -10.40625 C 205.179688 -13.332031 216.046875 -17.726562 224.171875 -23.59375 C 232.304688 -29.457031 238.375 -36.253906 242.375 -43.984375 C 246.375 -51.722656 249.039062 -59.722656 250.375 -67.984375 C 251.707031 -76.253906 252.375 -84.125 252.375 -91.59375 Z M 252.375 -91.59375 "></path></g></g></g></svg><style>@media (prefers-color-scheme: light) { :root { filter: none; } }
@media (prefers-color-scheme: dark) { :root { filter: none; } }
</style></svg>