<svg xmlns="http://www.w3.org/2000/svg" xmlns:xlink="http://www.w3.org/1999/xlink" width="1080" zoomAndPan="magnify" viewBox="0 0 810 809.999993" height="1080" preserveAspectRatio="xMidYMid meet" version="1.0"><defs><g/><clipPath id="a28169edda"><path d="M 307 410.359375 L 501 410.359375 L 501 622.976562 L 307 622.976562 Z M 307 410.359375 " clip-rule="nonzero"/></clipPath><clipPath id="2c20ebc2db"><path d="M 335.582031 410.671875 C 329.996094 423.199219 332.636719 432.527344 344.785156 435.441406 C 362.058594 439.585938 379.785156 441.671875 397.394531 443.726562 C 416.425781 445.945312 435.285156 448.269531 452.847656 457.617188 C 485.933594 475.238281 501.785156 504.007812 499.871094 543.339844 C 498.226562 577.265625 475.949219 607.394531 443.582031 619.441406 C 440.75 620.496094 437.875 621.394531 434.613281 622.5 C 440.992188 617.550781 447.425781 613.480469 452.855469 608.171875 C 466.621094 594.730469 471.53125 576.917969 469.332031 557.414062 C 467.339844 539.71875 456.875 527.949219 441.503906 524.113281 C 423.390625 519.59375 404.789062 517.515625 386.429688 514.183594 C 370.867188 511.347656 354.871094 509.929688 339.917969 504.824219 C 320.78125 498.300781 309.011719 482.445312 307.679688 459.792969 C 306.433594 438.4375 315.414062 422.414062 332.402344 412.074219 L 335.570312 410.683594 " clip-rule="nonzero"/></clipPath><clipPath id="c38827402a"><path d="M 411.714844 261 L 488 261 L 488 428.757812 L 411.714844 428.757812 Z M 411.714844 261 " clip-rule="nonzero"/></clipPath><clipPath id="741a9fb2ee"><path d="M 411.835938 428.375 C 423.230469 419.027344 426 404.792969 426.847656 390.269531 C 428.824219 356.582031 430.101562 322.789062 425.570312 289.203125 C 424.085938 278.199219 420.898438 268.136719 412.5 261.558594 C 456.660156 256.699219 495.1875 310.015625 485.789062 362.164062 C 482.128906 382.476562 472.566406 397.683594 459.238281 409.34375 C 446.988281 420.0625 428.566406 427.546875 411.824219 428.367188 " clip-rule="nonzero"/></clipPath><clipPath id="ea47531337"><path d="M 321 261 L 395.988281 261 L 395.988281 429 L 321 429 Z M 321 261 " clip-rule="nonzero"/></clipPath><clipPath id="e08205cfeb"><path d="M 395.941406 261.292969 C 383.097656 274.167969 381.398438 292.382812 381.277344 310.476562 C 381.09375 339.226562 381.65625 368.015625 382.914062 396.710938 C 383.445312 408.75 387.136719 420.214844 395.605469 428.886719 C 390.695312 427.863281 385.726562 427.160156 380.878906 425.777344 C 363.347656 420.777344 347.660156 411.359375 335.777344 393.714844 C 316.109375 364.515625 316.742188 322.082031 337.042969 293.621094 C 350.707031 274.476562 375.292969 260.84375 395.933594 261.304688 " clip-rule="nonzero"/></clipPath><clipPath id="c5b1428ada"><path d="M 323 526 L 394.332031 526 L 394.332031 622.976562 L 323 622.976562 Z M 323 526 " clip-rule="nonzero"/></clipPath><clipPath id="31a0c5f2e2"><path d="M 394.246094 622.5 C 371.867188 619.800781 351.585938 612.679688 335.855469 594.058594 C 322.992188 578.839844 319.574219 558.703125 326.96875 543.617188 C 334.945312 527.335938 353.898438 521.230469 369.035156 530.054688 C 385.542969 539.679688 392.496094 560.738281 384.847656 578.019531 L 380.398438 587.410156 C 374.1875 601.644531 378.054688 613.449219 391.308594 620.882812 L 394.246094 622.488281 " clip-rule="nonzero"/></clipPath><clipPath id="60f1103ea7"><path d="M 452 206 L 510 206 L 510 288.71875 L 452 288.71875 Z M 452 206 " clip-rule="nonzero"/></clipPath><clipPath id="ab83282e32"><path d="M 482.078125 288.078125 C 497.242188 274.34375 509.484375 258.890625 509.230469 237.042969 C 509.085938 224.453125 502.613281 215.730469 491.515625 209.554688 C 475.519531 200.644531 454.820312 216.066406 453.195312 231.960938 C 451.988281 243.761719 454.542969 253.429688 464.660156 260.402344 C 467.769531 262.539062 470.601562 265.109375 473.8125 267.0625 C 484.070312 273.289062 485.398438 276.59375 482.078125 288.078125 " clip-rule="nonzero"/></clipPath><clipPath id="5ad7b3874a"><path d="M 321.492188 371 L 379 371 L 379 430 L 321.492188 430 Z M 321.492188 371 " clip-rule="nonzero"/></clipPath><clipPath id="26db0409f7"><path d="M 378.730469 372.023438 C 361.875 384.675781 345.675781 398.523438 332.738281 415.203125 C 329.109375 419.875 325.753906 424.777344 322.746094 429.867188 L 321.867188 429.347656 C 324.894531 424.214844 328.277344 419.285156 331.929688 414.578125 L 332.339844 414.894531 L 331.929688 414.578125 C 344.949219 397.796875 361.230469 383.886719 378.117188 371.207031 Z M 378.730469 372.023438 " clip-rule="nonzero"/></clipPath><clipPath id="b9f20500de"><path d="M 429.097656 279.519531 L 488.691406 279.519531 L 488.691406 338.804688 L 429.097656 338.804688 Z M 429.097656 279.519531 " clip-rule="nonzero"/></clipPath><clipPath id="32678d28b6"><path d="M 488.558594 280.191406 C 472.617188 303.101562 452.449219 322.042969 430.253906 338.765625 L 429.640625 337.945312 C 451.773438 321.265625 471.847656 302.40625 487.722656 279.609375 Z M 488.558594 280.191406 " clip-rule="nonzero"/></clipPath><clipPath id="12c7e8b8ff"><path d="M 381.917969 616 L 441.511719 616 L 441.511719 626 L 381.917969 626 Z M 381.917969 616 " clip-rule="nonzero"/></clipPath><clipPath id="d7634e1fb0"><path d="M 441.433594 618.910156 C 438.058594 621.957031 433.457031 623.113281 429.140625 623.910156 L 429.046875 623.410156 L 429.140625 623.910156 C 421.171875 625.382812 412.992188 626.039062 404.910156 625.136719 L 404.972656 624.625 L 404.910156 625.136719 C 396.832031 624.246094 388.835938 621.761719 381.992188 617.3125 L 382.542969 616.453125 C 389.234375 620.792969 397.066406 623.234375 405.023438 624.113281 C 412.980469 624.996094 421.0625 624.359375 428.957031 622.898438 C 433.273438 622.101562 437.609375 620.976562 440.75 618.140625 Z M 441.433594 618.910156 " clip-rule="nonzero"/></clipPath></defs><g clip-path="url(#a28169edda)"><g clip-path="url(#2c20ebc2db)"><path fill="#231f20" d="M 302.457031 201.832031 L 514.351562 201.832031 L 514.351562 631.15625 L 302.457031 631.15625 Z M 302.457031 201.832031 " fill-opacity="1" fill-rule="nonzero"/></g></g><g clip-path="url(#c38827402a)"><g clip-path="url(#741a9fb2ee)"><path fill="#231f20" d="M 302.457031 201.832031 L 514.351562 201.832031 L 514.351562 631.15625 L 302.457031 631.15625 Z M 302.457031 201.832031 " fill-opacity="1" fill-rule="nonzero"/></g></g><g clip-path="url(#ea47531337)"><g clip-path="url(#e08205cfeb)"><path fill="#231f20" d="M 302.457031 201.832031 L 514.351562 201.832031 L 514.351562 631.15625 L 302.457031 631.15625 Z M 302.457031 201.832031 " fill-opacity="1" fill-rule="nonzero"/></g></g><g clip-path="url(#c5b1428ada)"><g clip-path="url(#31a0c5f2e2)"><path fill="#231f20" d="M 302.457031 201.832031 L 514.351562 201.832031 L 514.351562 631.15625 L 302.457031 631.15625 Z M 302.457031 201.832031 " fill-opacity="1" fill-rule="nonzero"/></g></g><g clip-path="url(#60f1103ea7)"><g clip-path="url(#ab83282e32)"><path fill="#231f20" d="M 302.457031 201.832031 L 514.351562 201.832031 L 514.351562 631.15625 L 302.457031 631.15625 Z M 302.457031 201.832031 " fill-opacity="1" fill-rule="nonzero"/></g></g><g clip-path="url(#5ad7b3874a)"><g clip-path="url(#26db0409f7)"><path fill="#231f20" d="M 302.457031 201.832031 L 514.351562 201.832031 L 514.351562 631.15625 L 302.457031 631.15625 Z M 302.457031 201.832031 " fill-opacity="1" fill-rule="nonzero"/></g></g><g clip-path="url(#b9f20500de)"><g clip-path="url(#32678d28b6)"><path fill="#231f20" d="M 302.457031 201.832031 L 514.351562 201.832031 L 514.351562 631.15625 L 302.457031 631.15625 Z M 302.457031 201.832031 " fill-opacity="1" fill-rule="nonzero"/></g></g><g clip-path="url(#12c7e8b8ff)"><g clip-path="url(#d7634e1fb0)"><path fill="#231f20" d="M 302.457031 201.832031 L 514.351562 201.832031 L 514.351562 631.15625 L 302.457031 631.15625 Z M 302.457031 201.832031 " fill-opacity="1" fill-rule="nonzero"/></g></g><g fill="#000000" fill-opacity="1"><g transform="translate(294.808876, 661.661171)"><g><path d="M 6.136719 0.253906 C 7.703125 0.253906 9.144531 -0.0898438 10.277344 -1.171875 L 10.277344 -3.871094 C 10.277344 -4.570312 10.746094 -4.859375 11.304688 -4.859375 L 11.304688 -5.164062 L 7.324219 -5.164062 L 7.324219 -4.859375 C 7.867188 -4.84375 8.425781 -4.609375 8.425781 -3.886719 L 8.425781 -0.46875 L 8.335938 -0.433594 C 7.777344 -0.234375 7.074219 -0.144531 6.515625 -0.144531 C 3.277344 -0.144531 2.269531 -3.132812 2.269531 -5.832031 C 2.269531 -7.992188 3.328125 -11.539062 6.101562 -11.539062 C 7.613281 -11.539062 8.730469 -10.386719 9.414062 -9.199219 C 9.574219 -8.964844 9.757812 -8.640625 9.863281 -8.335938 L 10.152344 -8.335938 L 9.882812 -10.53125 C 9.863281 -10.546875 9.847656 -10.585938 9.808594 -10.601562 C 9.773438 -10.65625 9.71875 -10.710938 9.71875 -10.710938 C 8.855469 -11.59375 7.453125 -11.84375 6.226562 -11.84375 C 2.429688 -11.84375 0.304688 -9.324219 0.304688 -5.578125 C 0.304688 -1.890625 2.464844 0.253906 6.136719 0.253906 Z M 6.136719 0.253906 "/></g></g></g><g fill="#000000" fill-opacity="1"><g transform="translate(312.322843, 661.661171)"><g><path d="M 0.253906 -11.375 C 0.808594 -11.339844 1.296875 -11.089844 1.296875 -10.386719 L 1.296875 -1.277344 C 1.296875 -0.574219 0.808594 -0.324219 0.253906 -0.304688 L 0.253906 0 L 3.996094 0 L 3.996094 -0.289062 C 3.402344 -0.324219 3.148438 -0.648438 3.148438 -1.277344 L 3.148438 -5.5625 L 3.402344 -5.5625 C 4.734375 -5.5625 5.292969 -4.914062 5.761719 -3.742188 C 5.976562 -3.1875 6.136719 -2.574219 6.316406 -2.015625 C 6.679688 -0.863281 7.074219 0 7.9375 0 L 9.863281 0 L 9.863281 -0.304688 C 9.359375 -0.394531 9.035156 -0.738281 8.785156 -1.1875 C 8.65625 -1.421875 8.550781 -1.710938 8.425781 -1.996094 C 8.316406 -2.285156 8.207031 -2.59375 8.101562 -2.898438 C 7.632812 -4.121094 7.019531 -5.5625 5.398438 -5.652344 C 7.324219 -5.652344 9 -6.535156 9 -8.640625 C 9 -10.027344 8.207031 -11.105469 6.875 -11.464844 C 6.101562 -11.683594 5.257812 -11.683594 4.429688 -11.683594 C 3.042969 -11.683594 1.65625 -11.664062 0.253906 -11.664062 Z M 3.277344 -11.410156 C 3.601562 -11.410156 4.03125 -11.410156 4.464844 -11.375 C 4.894531 -11.359375 5.328125 -11.285156 5.652344 -11.160156 C 6.660156 -10.746094 7.054688 -9.613281 7.054688 -8.640625 C 7.054688 -7.648438 6.660156 -6.515625 5.652344 -6.101562 C 5.328125 -5.976562 4.894531 -5.921875 4.464844 -5.886719 C 4.03125 -5.851562 3.601562 -5.867188 3.277344 -5.867188 L 3.148438 -5.867188 L 3.148438 -11.410156 Z M 3.277344 -11.410156 "/></g></g></g><g fill="#000000" fill-opacity="1"><g transform="translate(328.054816, 661.661171)"><g><path d="M 4.195312 0 L 4.195312 -0.289062 C 3.472656 -0.289062 2.394531 -0.359375 2.394531 -1.332031 C 2.394531 -1.492188 2.429688 -1.765625 2.503906 -1.925781 L 3.582031 -4.589844 L 7.613281 -4.589844 L 8.945312 -1.386719 C 8.980469 -1.277344 9.019531 -1.132812 9.019531 -0.988281 C 9.019531 -0.414062 8.425781 -0.34375 7.992188 -0.289062 L 7.992188 0 L 12.347656 0 L 12.347656 -0.304688 C 11.683594 -0.324219 11.269531 -0.613281 10.996094 -1.296875 L 6.679688 -11.664062 L 6.175781 -11.664062 L 2.015625 -1.816406 C 1.65625 -0.972656 1.027344 -0.378906 0.0898438 -0.304688 L 0.0898438 0 Z M 5.578125 -9.46875 L 7.488281 -4.878906 L 3.707031 -4.878906 Z M 5.578125 -9.46875 "/></g></g></g><g fill="#000000" fill-opacity="1"><g transform="translate(346.252783, 661.661171)"><g><path d="M 0.304688 -5.796875 C 0.304688 -2.195312 2.125 0.214844 5.832031 0.214844 C 7.324219 0.214844 9 -0.269531 9.988281 -1.457031 C 10.027344 -1.511719 10.0625 -1.566406 10.097656 -1.621094 C 10.097656 -1.636719 10.117188 -1.65625 10.132812 -1.691406 C 10.242188 -2.484375 10.296875 -3.292969 10.386719 -4.105469 L 10.0625 -4.105469 C 9.324219 -2.285156 8.136719 -0.179688 5.832031 -0.179688 C 3.167969 -0.179688 2.285156 -3.652344 2.285156 -5.6875 C 2.285156 -7.6875 3.167969 -11.554688 5.867188 -11.554688 C 7.957031 -11.554688 9.089844 -9.863281 9.9375 -8.261719 L 10.261719 -8.261719 C 10.171875 -8.945312 10.097656 -9.613281 9.988281 -10.277344 C 9.972656 -10.296875 9.972656 -10.3125 9.953125 -10.332031 C 9.917969 -10.367188 9.863281 -10.421875 9.808594 -10.476562 C 9.71875 -10.566406 9.613281 -10.675781 9.59375 -10.691406 C 8.605469 -11.539062 7.273438 -11.863281 5.976562 -11.863281 C 2.394531 -11.863281 0.304688 -9.34375 0.304688 -5.796875 Z M 0.304688 -5.796875 "/></g></g></g><g fill="#000000" fill-opacity="1"><g transform="translate(362.668749, 661.661171)"><g><path d="M 0.160156 0 L 9.054688 0 L 9.773438 -3.402344 L 9.484375 -3.421875 C 9.324219 -3.042969 9.199219 -2.644531 9.019531 -2.25 C 8.496094 -1.097656 7.722656 -0.289062 6.355469 -0.289062 L 3.058594 -0.289062 L 3.058594 -5.507812 L 5.164062 -5.488281 C 5.4375 -5.488281 5.722656 -5.488281 5.976562 -5.453125 C 6.820312 -5.398438 7.433594 -5.058594 7.488281 -4.105469 L 7.777344 -4.105469 L 7.777344 -7.542969 L 7.507812 -7.542969 C 7.433594 -6.121094 6.390625 -5.851562 5.164062 -5.851562 C 4.5 -5.832031 3.851562 -5.832031 3.1875 -5.832031 L 3.058594 -5.8125 L 3.058594 -11.375 L 5.488281 -11.375 C 6.984375 -11.375 7.921875 -10.675781 8.550781 -9.359375 C 8.710938 -9 8.839844 -8.621094 9 -8.242188 L 9.289062 -8.261719 L 8.566406 -11.664062 L 0.160156 -11.664062 L 0.160156 -11.375 C 0.71875 -11.339844 1.207031 -11.089844 1.207031 -10.386719 L 1.207031 -1.277344 C 1.207031 -0.574219 0.71875 -0.324219 0.160156 -0.304688 Z M 0.160156 0 "/></g></g></g><g fill="#000000" fill-opacity="1"><g transform="translate(378.472718, 661.661171)"><g/></g></g><g fill="#000000" fill-opacity="1"><g transform="translate(387.940712, 661.661171)"><g><path d="M 6.136719 0.253906 C 7.703125 0.253906 9.144531 -0.0898438 10.277344 -1.171875 L 10.277344 -3.871094 C 10.277344 -4.570312 10.746094 -4.859375 11.304688 -4.859375 L 11.304688 -5.164062 L 7.324219 -5.164062 L 7.324219 -4.859375 C 7.867188 -4.84375 8.425781 -4.609375 8.425781 -3.886719 L 8.425781 -0.46875 L 8.335938 -0.433594 C 7.777344 -0.234375 7.074219 -0.144531 6.515625 -0.144531 C 3.277344 -0.144531 2.269531 -3.132812 2.269531 -5.832031 C 2.269531 -7.992188 3.328125 -11.539062 6.101562 -11.539062 C 7.613281 -11.539062 8.730469 -10.386719 9.414062 -9.199219 C 9.574219 -8.964844 9.757812 -8.640625 9.863281 -8.335938 L 10.152344 -8.335938 L 9.882812 -10.53125 C 9.863281 -10.546875 9.847656 -10.585938 9.808594 -10.601562 C 9.773438 -10.65625 9.71875 -10.710938 9.71875 -10.710938 C 8.855469 -11.59375 7.453125 -11.84375 6.226562 -11.84375 C 2.429688 -11.84375 0.304688 -9.324219 0.304688 -5.578125 C 0.304688 -1.890625 2.464844 0.253906 6.136719 0.253906 Z M 6.136719 0.253906 "/></g></g></g><g fill="#000000" fill-opacity="1"><g transform="translate(405.454675, 661.661171)"><g><path d="M 0.160156 -11.375 C 0.71875 -11.339844 1.207031 -11.089844 1.207031 -10.386719 L 1.207031 -3.328125 C 1.207031 -0.9375 3.042969 0.179688 5.257812 0.179688 C 7.738281 0.179688 9.070312 -1.1875 9.070312 -3.691406 L 9.070312 -9.953125 C 9.070312 -10.980469 9.523438 -11.339844 10.421875 -11.375 L 10.421875 -11.664062 L 6.964844 -11.664062 L 6.964844 -11.375 C 7.792969 -11.339844 8.785156 -11.089844 8.785156 -9.953125 L 8.785156 -3.457031 C 8.785156 -1.65625 7.558594 -0.179688 5.6875 -0.179688 C 4.429688 -0.179688 3.457031 -0.863281 3.167969 -2.140625 C 3.058594 -2.609375 3.058594 -3.113281 3.058594 -3.5625 L 3.058594 -10.386719 C 3.058594 -11.089844 3.527344 -11.339844 4.085938 -11.375 L 4.085938 -11.664062 L 0.160156 -11.664062 Z M 0.160156 -11.375 "/></g></g></g><g fill="#000000" fill-opacity="1"><g transform="translate(421.906644, 661.661171)"><g><path d="M 0.46875 -8.242188 C 1.207031 -9.863281 2.070312 -11.375 4.050781 -11.375 L 4.554688 -11.375 L 4.554688 -1.277344 C 4.554688 -0.574219 4.066406 -0.324219 3.511719 -0.289062 L 3.511719 0 L 7.433594 0 L 7.433594 -0.289062 C 6.875 -0.324219 6.40625 -0.574219 6.40625 -1.277344 L 6.40625 -11.375 L 6.894531 -11.375 C 8.945312 -11.375 9.898438 -9.953125 10.691406 -8.242188 L 10.996094 -8.261719 L 10.242188 -11.664062 L 0.882812 -11.664062 L 0.179688 -8.261719 Z M 0.46875 -8.242188 "/></g></g></g><g fill="#000000" fill-opacity="1"><g transform="translate(438.86261, 661.661171)"><g><path d="M 0.46875 -11.664062 L 0.46875 -11.375 C 1.027344 -11.339844 1.511719 -11.089844 1.511719 -10.386719 L 1.511719 -1.277344 C 1.511719 -0.574219 1.027344 -0.324219 0.46875 -0.304688 L 0.46875 0 L 4.390625 0 L 4.390625 -0.304688 C 3.835938 -0.324219 3.367188 -0.574219 3.367188 -1.277344 L 3.367188 -10.386719 C 3.367188 -11.089844 3.835938 -11.339844 4.390625 -11.375 L 4.390625 -11.664062 Z M 0.46875 -11.664062 "/></g></g></g><g fill="#000000" fill-opacity="1"><g transform="translate(449.536594, 661.661171)"><g><path d="M 0.160156 0 L 9.054688 0 L 9.773438 -3.402344 L 9.484375 -3.421875 C 9.324219 -3.042969 9.199219 -2.644531 9.019531 -2.25 C 8.496094 -1.097656 7.722656 -0.289062 6.355469 -0.289062 L 3.058594 -0.289062 L 3.058594 -5.507812 L 5.164062 -5.488281 C 5.4375 -5.488281 5.722656 -5.488281 5.976562 -5.453125 C 6.820312 -5.398438 7.433594 -5.058594 7.488281 -4.105469 L 7.777344 -4.105469 L 7.777344 -7.542969 L 7.507812 -7.542969 C 7.433594 -6.121094 6.390625 -5.851562 5.164062 -5.851562 C 4.5 -5.832031 3.851562 -5.832031 3.1875 -5.832031 L 3.058594 -5.8125 L 3.058594 -11.375 L 5.488281 -11.375 C 6.984375 -11.375 7.921875 -10.675781 8.550781 -9.359375 C 8.710938 -9 8.839844 -8.621094 9 -8.242188 L 9.289062 -8.261719 L 8.566406 -11.664062 L 0.160156 -11.664062 L 0.160156 -11.375 C 0.71875 -11.339844 1.207031 -11.089844 1.207031 -10.386719 L 1.207031 -1.277344 C 1.207031 -0.574219 0.71875 -0.324219 0.160156 -0.304688 Z M 0.160156 0 "/></g></g></g><g fill="#000000" fill-opacity="1"><g transform="translate(465.340563, 661.661171)"><g><path d="M 0.253906 -11.375 C 0.808594 -11.339844 1.296875 -11.089844 1.296875 -10.386719 L 1.296875 -1.277344 C 1.296875 -0.574219 0.808594 -0.324219 0.253906 -0.304688 L 0.253906 0 L 3.996094 0 L 3.996094 -0.289062 C 3.402344 -0.324219 3.148438 -0.648438 3.148438 -1.277344 L 3.148438 -5.5625 L 3.402344 -5.5625 C 4.734375 -5.5625 5.292969 -4.914062 5.761719 -3.742188 C 5.976562 -3.1875 6.136719 -2.574219 6.316406 -2.015625 C 6.679688 -0.863281 7.074219 0 7.9375 0 L 9.863281 0 L 9.863281 -0.304688 C 9.359375 -0.394531 9.035156 -0.738281 8.785156 -1.1875 C 8.65625 -1.421875 8.550781 -1.710938 8.425781 -1.996094 C 8.316406 -2.285156 8.207031 -2.59375 8.101562 -2.898438 C 7.632812 -4.121094 7.019531 -5.5625 5.398438 -5.652344 C 7.324219 -5.652344 9 -6.535156 9 -8.640625 C 9 -10.027344 8.207031 -11.105469 6.875 -11.464844 C 6.101562 -11.683594 5.257812 -11.683594 4.429688 -11.683594 C 3.042969 -11.683594 1.65625 -11.664062 0.253906 -11.664062 Z M 3.277344 -11.410156 C 3.601562 -11.410156 4.03125 -11.410156 4.464844 -11.375 C 4.894531 -11.359375 5.328125 -11.285156 5.652344 -11.160156 C 6.660156 -10.746094 7.054688 -9.613281 7.054688 -8.640625 C 7.054688 -7.648438 6.660156 -6.515625 5.652344 -6.101562 C 5.328125 -5.976562 4.894531 -5.921875 4.464844 -5.886719 C 4.03125 -5.851562 3.601562 -5.867188 3.277344 -5.867188 L 3.148438 -5.867188 L 3.148438 -11.410156 Z M 3.277344 -11.410156 "/></g></g></g><g fill="#000000" fill-opacity="1"><g transform="translate(481.072538, 661.661171)"><g><path d="M 0.253906 -11.375 C 0.808594 -11.339844 1.296875 -11.089844 1.296875 -10.386719 L 1.296875 -1.277344 C 1.296875 -0.574219 0.808594 -0.324219 0.253906 -0.304688 L 0.253906 0 L 3.996094 0 L 3.996094 -0.289062 C 3.402344 -0.324219 3.148438 -0.648438 3.148438 -1.277344 L 3.148438 -5.5625 L 3.402344 -5.5625 C 4.734375 -5.5625 5.292969 -4.914062 5.761719 -3.742188 C 5.976562 -3.1875 6.136719 -2.574219 6.316406 -2.015625 C 6.679688 -0.863281 7.074219 0 7.9375 0 L 9.863281 0 L 9.863281 -0.304688 C 9.359375 -0.394531 9.035156 -0.738281 8.785156 -1.1875 C 8.65625 -1.421875 8.550781 -1.710938 8.425781 -1.996094 C 8.316406 -2.285156 8.207031 -2.59375 8.101562 -2.898438 C 7.632812 -4.121094 7.019531 -5.5625 5.398438 -5.652344 C 7.324219 -5.652344 9 -6.535156 9 -8.640625 C 9 -10.027344 8.207031 -11.105469 6.875 -11.464844 C 6.101562 -11.683594 5.257812 -11.683594 4.429688 -11.683594 C 3.042969 -11.683594 1.65625 -11.664062 0.253906 -11.664062 Z M 3.277344 -11.410156 C 3.601562 -11.410156 4.03125 -11.410156 4.464844 -11.375 C 4.894531 -11.359375 5.328125 -11.285156 5.652344 -11.160156 C 6.660156 -10.746094 7.054688 -9.613281 7.054688 -8.640625 C 7.054688 -7.648438 6.660156 -6.515625 5.652344 -6.101562 C 5.328125 -5.976562 4.894531 -5.921875 4.464844 -5.886719 C 4.03125 -5.851562 3.601562 -5.867188 3.277344 -5.867188 L 3.148438 -5.867188 L 3.148438 -11.410156 Z M 3.277344 -11.410156 "/></g></g></g><g fill="#000000" fill-opacity="1"><g transform="translate(496.804501, 661.661171)"><g><path d="M 0.160156 0 L 9.054688 0 L 9.773438 -3.402344 L 9.484375 -3.421875 C 9.324219 -3.042969 9.199219 -2.644531 9.019531 -2.25 C 8.496094 -1.097656 7.722656 -0.289062 6.355469 -0.289062 L 3.058594 -0.289062 L 3.058594 -5.507812 L 5.164062 -5.488281 C 5.4375 -5.488281 5.722656 -5.488281 5.976562 -5.453125 C 6.820312 -5.398438 7.433594 -5.058594 7.488281 -4.105469 L 7.777344 -4.105469 L 7.777344 -7.542969 L 7.507812 -7.542969 C 7.433594 -6.121094 6.390625 -5.851562 5.164062 -5.851562 C 4.5 -5.832031 3.851562 -5.832031 3.1875 -5.832031 L 3.058594 -5.8125 L 3.058594 -11.375 L 5.488281 -11.375 C 6.984375 -11.375 7.921875 -10.675781 8.550781 -9.359375 C 8.710938 -9 8.839844 -8.621094 9 -8.242188 L 9.289062 -8.261719 L 8.566406 -11.664062 L 0.160156 -11.664062 L 0.160156 -11.375 C 0.71875 -11.339844 1.207031 -11.089844 1.207031 -10.386719 L 1.207031 -1.277344 C 1.207031 -0.574219 0.71875 -0.324219 0.160156 -0.304688 Z M 0.160156 0 "/></g></g></g><g fill="#000000" fill-opacity="1"><g transform="translate(512.60847, 661.661171)"><g><path d="M 0.179688 0 L 8.605469 0 L 9.054688 -2.683594 L 8.746094 -2.683594 C 7.722656 -0.394531 4.824219 -0.359375 2.789062 -0.324219 L 2.554688 -0.304688 L 9.34375 -11.664062 L 1.171875 -11.664062 L 0.664062 -8.980469 L 0.972656 -8.980469 C 1.980469 -11.304688 4.625 -11.339844 6.714844 -11.375 L 6.949219 -11.375 Z M 0.179688 0 "/></g></g></g><g fill="#000000" fill-opacity="1"><g transform="translate(317.894812, 683.41117)"><g><path d="M 0.160156 0 L 9.054688 0 L 9.773438 -3.402344 L 9.484375 -3.421875 C 9.324219 -3.042969 9.199219 -2.644531 9.019531 -2.25 C 8.496094 -1.097656 7.722656 -0.289062 6.355469 -0.289062 L 3.058594 -0.289062 L 3.058594 -5.507812 L 5.164062 -5.488281 C 5.4375 -5.488281 5.722656 -5.488281 5.976562 -5.453125 C 6.820312 -5.398438 7.433594 -5.058594 7.488281 -4.105469 L 7.777344 -4.105469 L 7.777344 -7.542969 L 7.507812 -7.542969 C 7.433594 -6.121094 6.390625 -5.851562 5.164062 -5.851562 C 4.5 -5.832031 3.851562 -5.832031 3.1875 -5.832031 L 3.058594 -5.8125 L 3.058594 -11.375 L 5.488281 -11.375 C 6.984375 -11.375 7.921875 -10.675781 8.550781 -9.359375 C 8.710938 -9 8.839844 -8.621094 9 -8.242188 L 9.289062 -8.261719 L 8.566406 -11.664062 L 0.160156 -11.664062 L 0.160156 -11.375 C 0.71875 -11.339844 1.207031 -11.089844 1.207031 -10.386719 L 1.207031 -1.277344 C 1.207031 -0.574219 0.71875 -0.324219 0.160156 -0.304688 Z M 0.160156 0 "/></g></g></g><g fill="#000000" fill-opacity="1"><g transform="translate(333.698781, 683.41117)"><g><path d="M 1.636719 -10.367188 L 5.957031 0 L 6.640625 0 L 10.816406 -9.847656 C 11.179688 -10.691406 11.789062 -11.285156 12.726562 -11.359375 L 12.726562 -11.664062 L 8.621094 -11.664062 L 8.621094 -11.375 C 9.359375 -11.375 10.421875 -11.320312 10.421875 -10.332031 C 10.421875 -10.171875 10.386719 -9.898438 10.3125 -9.738281 L 7.144531 -1.960938 L 3.707031 -10.277344 C 3.652344 -10.386719 3.617188 -10.546875 3.617188 -10.675781 C 3.617188 -11.25 4.230469 -11.339844 4.660156 -11.375 L 4.660156 -11.664062 L 0.109375 -11.664062 L 0.109375 -11.375 C 0.792969 -11.339844 1.332031 -11.105469 1.636719 -10.367188 Z M 1.636719 -10.367188 "/></g></g></g><g fill="#000000" fill-opacity="1"><g transform="translate(352.292739, 683.41117)"><g><path d="M 0.160156 0 L 9.054688 0 L 9.773438 -3.402344 L 9.484375 -3.421875 C 9.324219 -3.042969 9.199219 -2.644531 9.019531 -2.25 C 8.496094 -1.097656 7.722656 -0.289062 6.355469 -0.289062 L 3.058594 -0.289062 L 3.058594 -5.507812 L 5.164062 -5.488281 C 5.4375 -5.488281 5.722656 -5.488281 5.976562 -5.453125 C 6.820312 -5.398438 7.433594 -5.058594 7.488281 -4.105469 L 7.777344 -4.105469 L 7.777344 -7.542969 L 7.507812 -7.542969 C 7.433594 -6.121094 6.390625 -5.851562 5.164062 -5.851562 C 4.5 -5.832031 3.851562 -5.832031 3.1875 -5.832031 L 3.058594 -5.8125 L 3.058594 -11.375 L 5.488281 -11.375 C 6.984375 -11.375 7.921875 -10.675781 8.550781 -9.359375 C 8.710938 -9 8.839844 -8.621094 9 -8.242188 L 9.289062 -8.261719 L 8.566406 -11.664062 L 0.160156 -11.664062 L 0.160156 -11.375 C 0.71875 -11.339844 1.207031 -11.089844 1.207031 -10.386719 L 1.207031 -1.277344 C 1.207031 -0.574219 0.71875 -0.324219 0.160156 -0.304688 Z M 0.160156 0 "/></g></g></g><g fill="#000000" fill-opacity="1"><g transform="translate(368.096706, 683.41117)"><g><path d="M 0.214844 0 L 3.796875 0 L 3.796875 -0.289062 C 2.96875 -0.324219 1.980469 -0.574219 1.980469 -1.710938 L 1.980469 -10.3125 L 9.359375 0 L 9.703125 0 L 9.703125 -9.953125 C 9.703125 -11.035156 10.367188 -11.339844 11.230469 -11.375 L 11.230469 -11.664062 L 7.597656 -11.664062 L 7.597656 -11.375 C 8.425781 -11.339844 9.414062 -11.089844 9.414062 -9.953125 L 9.414062 -3.113281 L 3.3125 -11.664062 L 0.359375 -11.664062 L 0.359375 -11.359375 C 0.863281 -11.320312 1.3125 -11.050781 1.65625 -10.710938 L 1.691406 -10.675781 L 1.691406 -1.710938 C 1.691406 -0.648438 1.097656 -0.324219 0.214844 -0.289062 Z M 0.214844 0 "/></g></g></g><g fill="#000000" fill-opacity="1"><g transform="translate(385.358675, 683.41117)"><g><path d="M 0.46875 -8.242188 C 1.207031 -9.863281 2.070312 -11.375 4.050781 -11.375 L 4.554688 -11.375 L 4.554688 -1.277344 C 4.554688 -0.574219 4.066406 -0.324219 3.511719 -0.289062 L 3.511719 0 L 7.433594 0 L 7.433594 -0.289062 C 6.875 -0.324219 6.40625 -0.574219 6.40625 -1.277344 L 6.40625 -11.375 L 6.894531 -11.375 C 8.945312 -11.375 9.898438 -9.953125 10.691406 -8.242188 L 10.996094 -8.261719 L 10.242188 -11.664062 L 0.882812 -11.664062 L 0.179688 -8.261719 Z M 0.46875 -8.242188 "/></g></g></g><g fill="#000000" fill-opacity="1"><g transform="translate(402.314642, 683.41117)"><g/></g></g><g fill="#000000" fill-opacity="1"><g transform="translate(411.782636, 683.41117)"><g><path d="M 0.160156 -11.664062 L 0.160156 -11.375 C 0.71875 -11.339844 1.207031 -11.089844 1.207031 -10.386719 L 1.207031 -1.277344 C 1.207031 -0.574219 0.71875 -0.324219 0.160156 -0.289062 L 0.160156 0 L 3.1875 0 C 4.355469 0 5.707031 0.0351562 6.875 -0.144531 C 9.703125 -0.574219 10.746094 -3.042969 10.746094 -5.722656 C 10.746094 -8.441406 9.808594 -10.90625 7.003906 -11.484375 C 6.390625 -11.609375 5.742188 -11.644531 5.113281 -11.664062 C 4.445312 -11.683594 3.796875 -11.664062 3.1875 -11.664062 Z M 3.058594 -0.289062 L 3.058594 -11.394531 L 3.1875 -11.394531 C 4.03125 -11.394531 5.507812 -11.375 6.316406 -11.105469 C 8.226562 -10.476562 8.785156 -7.613281 8.785156 -5.941406 C 8.785156 -4.105469 8.296875 -1.835938 6.480469 -0.882812 C 5.472656 -0.34375 4.265625 -0.289062 3.1875 -0.289062 Z M 3.058594 -0.289062 "/></g></g></g><g fill="#000000" fill-opacity="1"><g transform="translate(428.828604, 683.41117)"><g><path d="M 0.160156 0 L 9.054688 0 L 9.773438 -3.402344 L 9.484375 -3.421875 C 9.324219 -3.042969 9.199219 -2.644531 9.019531 -2.25 C 8.496094 -1.097656 7.722656 -0.289062 6.355469 -0.289062 L 3.058594 -0.289062 L 3.058594 -5.507812 L 5.164062 -5.488281 C 5.4375 -5.488281 5.722656 -5.488281 5.976562 -5.453125 C 6.820312 -5.398438 7.433594 -5.058594 7.488281 -4.105469 L 7.777344 -4.105469 L 7.777344 -7.542969 L 7.507812 -7.542969 C 7.433594 -6.121094 6.390625 -5.851562 5.164062 -5.851562 C 4.5 -5.832031 3.851562 -5.832031 3.1875 -5.832031 L 3.058594 -5.8125 L 3.058594 -11.375 L 5.488281 -11.375 C 6.984375 -11.375 7.921875 -10.675781 8.550781 -9.359375 C 8.710938 -9 8.839844 -8.621094 9 -8.242188 L 9.289062 -8.261719 L 8.566406 -11.664062 L 0.160156 -11.664062 L 0.160156 -11.375 C 0.71875 -11.339844 1.207031 -11.089844 1.207031 -10.386719 L 1.207031 -1.277344 C 1.207031 -0.574219 0.71875 -0.324219 0.160156 -0.304688 Z M 0.160156 0 "/></g></g></g><g fill="#000000" fill-opacity="1"><g transform="translate(444.632573, 683.41117)"><g><path d="M 0.289062 -1.367188 C 0.289062 -1.351562 0.304688 -1.3125 0.34375 -1.277344 C 0.394531 -1.207031 0.449219 -1.152344 0.46875 -1.117188 C 1.367188 -0.234375 3.132812 0.179688 4.355469 0.179688 C 5.941406 0.179688 7.722656 -0.214844 8.40625 -1.765625 C 8.566406 -2.105469 8.65625 -2.519531 8.65625 -2.898438 C 8.65625 -4.660156 7.144531 -5.5625 5.527344 -6.425781 C 5.128906 -6.640625 4.734375 -6.839844 4.355469 -7.074219 C 3.328125 -7.648438 2.269531 -8.425781 2.269531 -9.738281 C 2.269531 -10.945312 3.167969 -11.609375 4.265625 -11.609375 C 5.957031 -11.609375 7.363281 -9.664062 7.902344 -8.261719 L 8.226562 -8.261719 L 7.921875 -10.765625 C 7.902344 -10.816406 7.882812 -10.835938 7.867188 -10.855469 C 7.8125 -10.90625 7.757812 -10.960938 7.738281 -10.980469 C 7.019531 -11.609375 5.472656 -11.863281 4.5 -11.863281 C 2.519531 -11.863281 0.503906 -10.871094 0.503906 -8.675781 C 0.503906 -6.910156 2.015625 -5.992188 3.601562 -5.164062 C 3.996094 -4.949219 4.390625 -4.753906 4.769531 -4.535156 C 5.722656 -4.03125 6.839844 -3.277344 6.839844 -2.070312 C 6.839844 -0.847656 5.851562 -0.0898438 4.714844 -0.0898438 C 2.824219 -0.0898438 1.117188 -1.996094 0.863281 -3.796875 L 0.59375 -3.835938 L 0.269531 -1.402344 C 0.269531 -1.386719 0.269531 -1.386719 0.289062 -1.367188 Z M 0.289062 -1.367188 "/></g></g></g><g fill="#000000" fill-opacity="1"><g transform="translate(459.410546, 683.41117)"><g><path d="M 0.46875 -11.664062 L 0.46875 -11.375 C 1.027344 -11.339844 1.511719 -11.089844 1.511719 -10.386719 L 1.511719 -1.277344 C 1.511719 -0.574219 1.027344 -0.324219 0.46875 -0.304688 L 0.46875 0 L 4.390625 0 L 4.390625 -0.304688 C 3.835938 -0.324219 3.367188 -0.574219 3.367188 -1.277344 L 3.367188 -10.386719 C 3.367188 -11.089844 3.835938 -11.339844 4.390625 -11.375 L 4.390625 -11.664062 Z M 0.46875 -11.664062 "/></g></g></g><g fill="#000000" fill-opacity="1"><g transform="translate(470.08453, 683.41117)"><g><path d="M 6.136719 0.253906 C 7.703125 0.253906 9.144531 -0.0898438 10.277344 -1.171875 L 10.277344 -3.871094 C 10.277344 -4.570312 10.746094 -4.859375 11.304688 -4.859375 L 11.304688 -5.164062 L 7.324219 -5.164062 L 7.324219 -4.859375 C 7.867188 -4.84375 8.425781 -4.609375 8.425781 -3.886719 L 8.425781 -0.46875 L 8.335938 -0.433594 C 7.777344 -0.234375 7.074219 -0.144531 6.515625 -0.144531 C 3.277344 -0.144531 2.269531 -3.132812 2.269531 -5.832031 C 2.269531 -7.992188 3.328125 -11.539062 6.101562 -11.539062 C 7.613281 -11.539062 8.730469 -10.386719 9.414062 -9.199219 C 9.574219 -8.964844 9.757812 -8.640625 9.863281 -8.335938 L 10.152344 -8.335938 L 9.882812 -10.53125 C 9.863281 -10.546875 9.847656 -10.585938 9.808594 -10.601562 C 9.773438 -10.65625 9.71875 -10.710938 9.71875 -10.710938 C 8.855469 -11.59375 7.453125 -11.84375 6.226562 -11.84375 C 2.429688 -11.84375 0.304688 -9.324219 0.304688 -5.578125 C 0.304688 -1.890625 2.464844 0.253906 6.136719 0.253906 Z M 6.136719 0.253906 "/></g></g></g><g fill="#000000" fill-opacity="1"><g transform="translate(487.598498, 683.41117)"><g><path d="M 0.214844 0 L 3.796875 0 L 3.796875 -0.289062 C 2.96875 -0.324219 1.980469 -0.574219 1.980469 -1.710938 L 1.980469 -10.3125 L 9.359375 0 L 9.703125 0 L 9.703125 -9.953125 C 9.703125 -11.035156 10.367188 -11.339844 11.230469 -11.375 L 11.230469 -11.664062 L 7.597656 -11.664062 L 7.597656 -11.375 C 8.425781 -11.339844 9.414062 -11.089844 9.414062 -9.953125 L 9.414062 -3.113281 L 3.3125 -11.664062 L 0.359375 -11.664062 L 0.359375 -11.359375 C 0.863281 -11.320312 1.3125 -11.050781 1.65625 -10.710938 L 1.691406 -10.675781 L 1.691406 -1.710938 C 1.691406 -0.648438 1.097656 -0.324219 0.214844 -0.289062 Z M 0.214844 0 "/></g></g></g><g fill="#000000" fill-opacity="1"><g transform="translate(333.363562, 705.161169)"><g><path d="M 0.648438 -2.484375 C 0.648438 -0.828125 1.890625 0.144531 3.492188 0.144531 C 4.914062 0.144531 5.886719 -0.503906 6.75 -1.636719 L 6.859375 -1.765625 L 6.949219 -1.636719 C 7.6875 -0.683594 8.585938 0.179688 9.808594 0.179688 C 10.835938 0.179688 11.503906 -0.539062 11.59375 -1.53125 C 11.375 -1.3125 11.089844 -1.1875 10.765625 -1.1875 C 9.863281 -1.1875 8.730469 -2.644531 8.28125 -3.203125 L 8.191406 -3.3125 L 8.296875 -3.382812 C 9.144531 -4.015625 10.996094 -5.957031 10.996094 -6.964844 C 10.996094 -7.703125 10.511719 -8.152344 9.792969 -8.152344 C 9.289062 -8.152344 8.695312 -7.882812 8.476562 -7.453125 C 8.980469 -7.289062 9.289062 -6.949219 9.289062 -6.335938 C 9.289062 -5.488281 8.695312 -4.230469 8.226562 -3.5625 L 8.136719 -3.421875 L 8.027344 -3.5625 C 7.183594 -4.660156 6.371094 -5.796875 5.578125 -6.929688 L 5.488281 -7.054688 L 5.652344 -7.128906 C 6.910156 -7.578125 8.226562 -8.351562 8.226562 -9.808594 C 8.226562 -11.285156 6.730469 -11.863281 5.398438 -11.863281 C 3.796875 -11.863281 2.484375 -10.871094 2.484375 -9.199219 C 2.484375 -8.675781 2.628906 -8.226562 2.84375 -7.8125 C 3.058594 -7.378906 3.347656 -6.964844 3.636719 -6.535156 L 3.707031 -6.425781 L 3.582031 -6.355469 C 2.089844 -5.542969 0.648438 -4.285156 0.648438 -2.484375 Z M 3.761719 -6.066406 L 3.871094 -6.175781 L 3.960938 -6.046875 C 4.84375 -4.699219 5.722656 -3.367188 6.640625 -2.050781 L 6.714844 -1.960938 L 6.625 -1.871094 C 6.03125 -1.457031 5.363281 -1.207031 4.644531 -1.207031 C 3.457031 -1.207031 2.429688 -1.925781 2.429688 -3.238281 C 2.429688 -4.285156 3.042969 -5.363281 3.761719 -6.066406 Z M 5.347656 -11.574219 C 6.210938 -11.574219 6.785156 -10.890625 6.785156 -10.042969 C 6.785156 -8.929688 6.210938 -8.101562 5.417969 -7.414062 L 5.308594 -7.324219 L 5.238281 -7.453125 C 4.804688 -8.136719 4.03125 -9.359375 4.03125 -10.261719 C 4.03125 -11.035156 4.589844 -11.574219 5.347656 -11.574219 Z M 5.347656 -11.574219 "/></g></g></g><g fill="#000000" fill-opacity="1"><g transform="translate(351.471523, 705.161169)"><g/></g></g><g fill="#000000" fill-opacity="1"><g transform="translate(360.939516, 705.161169)"><g><path d="M 0.144531 -0.304688 L 0.144531 0 L 4.066406 0 L 4.066406 -0.304688 C 3.511719 -0.324219 3.042969 -0.574219 3.042969 -1.277344 L 3.042969 -4.789062 L 3.167969 -4.769531 C 3.691406 -4.769531 4.339844 -4.753906 4.984375 -4.769531 C 5.632812 -4.789062 6.265625 -4.84375 6.75 -4.984375 C 8.171875 -5.417969 8.910156 -6.769531 8.910156 -8.226562 C 8.910156 -9.683594 8.152344 -11.035156 6.75 -11.449219 C 6.046875 -11.664062 5.039062 -11.683594 4.285156 -11.683594 C 2.898438 -11.683594 1.53125 -11.664062 0.144531 -11.664062 L 0.144531 -11.375 C 0.703125 -11.339844 1.1875 -11.089844 1.1875 -10.386719 L 1.1875 -1.277344 C 1.1875 -0.574219 0.703125 -0.324219 0.144531 -0.304688 Z M 3.042969 -5.113281 L 3.042969 -11.339844 L 3.167969 -11.339844 C 3.492188 -11.339844 3.925781 -11.339844 4.355469 -11.304688 C 4.789062 -11.285156 5.238281 -11.230469 5.542969 -11.089844 C 6.605469 -10.601562 6.949219 -9.214844 6.949219 -8.207031 C 6.949219 -7.21875 6.605469 -5.832031 5.5625 -5.363281 C 5.257812 -5.21875 4.804688 -5.148438 4.375 -5.128906 C 3.925781 -5.09375 3.492188 -5.113281 3.167969 -5.113281 Z M 3.042969 -5.113281 "/></g></g></g><g fill="#000000" fill-opacity="1"><g transform="translate(375.969484, 705.161169)"><g><path d="M 0.125 -11.664062 L 0.125 -11.375 C 0.683594 -11.339844 1.171875 -11.089844 1.171875 -10.386719 L 1.171875 -1.277344 C 1.171875 -0.574219 0.683594 -0.324219 0.125 -0.304688 L 0.125 0 L 8.496094 0 L 9.199219 -2.574219 L 8.910156 -2.59375 C 8.117188 -0.9375 6.28125 -0.289062 4.609375 -0.289062 L 3.058594 -0.289062 L 3.023438 -10.386719 C 3.023438 -11.089844 3.492188 -11.339844 4.050781 -11.375 L 4.050781 -11.664062 Z M 0.125 -11.664062 "/></g></g></g><g fill="#000000" fill-opacity="1"><g transform="translate(391.215463, 705.161169)"><g><path d="M 4.195312 0 L 4.195312 -0.289062 C 3.472656 -0.289062 2.394531 -0.359375 2.394531 -1.332031 C 2.394531 -1.492188 2.429688 -1.765625 2.503906 -1.925781 L 3.582031 -4.589844 L 7.613281 -4.589844 L 8.945312 -1.386719 C 8.980469 -1.277344 9.019531 -1.132812 9.019531 -0.988281 C 9.019531 -0.414062 8.425781 -0.34375 7.992188 -0.289062 L 7.992188 0 L 12.347656 0 L 12.347656 -0.304688 C 11.683594 -0.324219 11.269531 -0.613281 10.996094 -1.296875 L 6.679688 -11.664062 L 6.175781 -11.664062 L 2.015625 -1.816406 C 1.65625 -0.972656 1.027344 -0.378906 0.0898438 -0.304688 L 0.0898438 0 Z M 5.578125 -9.46875 L 7.488281 -4.878906 L 3.707031 -4.878906 Z M 5.578125 -9.46875 "/></g></g></g><g fill="#000000" fill-opacity="1"><g transform="translate(409.413433, 705.161169)"><g><path d="M 0.214844 0 L 3.796875 0 L 3.796875 -0.289062 C 2.96875 -0.324219 1.980469 -0.574219 1.980469 -1.710938 L 1.980469 -10.3125 L 9.359375 0 L 9.703125 0 L 9.703125 -9.953125 C 9.703125 -11.035156 10.367188 -11.339844 11.230469 -11.375 L 11.230469 -11.664062 L 7.597656 -11.664062 L 7.597656 -11.375 C 8.425781 -11.339844 9.414062 -11.089844 9.414062 -9.953125 L 9.414062 -3.113281 L 3.3125 -11.664062 L 0.359375 -11.664062 L 0.359375 -11.359375 C 0.863281 -11.320312 1.3125 -11.050781 1.65625 -10.710938 L 1.691406 -10.675781 L 1.691406 -1.710938 C 1.691406 -0.648438 1.097656 -0.324219 0.214844 -0.289062 Z M 0.214844 0 "/></g></g></g><g fill="#000000" fill-opacity="1"><g transform="translate(426.675403, 705.161169)"><g><path d="M 0.214844 0 L 3.796875 0 L 3.796875 -0.289062 C 2.96875 -0.324219 1.980469 -0.574219 1.980469 -1.710938 L 1.980469 -10.3125 L 9.359375 0 L 9.703125 0 L 9.703125 -9.953125 C 9.703125 -11.035156 10.367188 -11.339844 11.230469 -11.375 L 11.230469 -11.664062 L 7.597656 -11.664062 L 7.597656 -11.375 C 8.425781 -11.339844 9.414062 -11.089844 9.414062 -9.953125 L 9.414062 -3.113281 L 3.3125 -11.664062 L 0.359375 -11.664062 L 0.359375 -11.359375 C 0.863281 -11.320312 1.3125 -11.050781 1.65625 -10.710938 L 1.691406 -10.675781 L 1.691406 -1.710938 C 1.691406 -0.648438 1.097656 -0.324219 0.214844 -0.289062 Z M 0.214844 0 "/></g></g></g><g fill="#000000" fill-opacity="1"><g transform="translate(443.937367, 705.161169)"><g><path d="M 0.46875 -11.664062 L 0.46875 -11.375 C 1.027344 -11.339844 1.511719 -11.089844 1.511719 -10.386719 L 1.511719 -1.277344 C 1.511719 -0.574219 1.027344 -0.324219 0.46875 -0.304688 L 0.46875 0 L 4.390625 0 L 4.390625 -0.304688 C 3.835938 -0.324219 3.367188 -0.574219 3.367188 -1.277344 L 3.367188 -10.386719 C 3.367188 -11.089844 3.835938 -11.339844 4.390625 -11.375 L 4.390625 -11.664062 Z M 0.46875 -11.664062 "/></g></g></g><g fill="#000000" fill-opacity="1"><g transform="translate(454.611351, 705.161169)"><g><path d="M 0.214844 0 L 3.796875 0 L 3.796875 -0.289062 C 2.96875 -0.324219 1.980469 -0.574219 1.980469 -1.710938 L 1.980469 -10.3125 L 9.359375 0 L 9.703125 0 L 9.703125 -9.953125 C 9.703125 -11.035156 10.367188 -11.339844 11.230469 -11.375 L 11.230469 -11.664062 L 7.597656 -11.664062 L 7.597656 -11.375 C 8.425781 -11.339844 9.414062 -11.089844 9.414062 -9.953125 L 9.414062 -3.113281 L 3.3125 -11.664062 L 0.359375 -11.664062 L 0.359375 -11.359375 C 0.863281 -11.320312 1.3125 -11.050781 1.65625 -10.710938 L 1.691406 -10.675781 L 1.691406 -1.710938 C 1.691406 -0.648438 1.097656 -0.324219 0.214844 -0.289062 Z M 0.214844 0 "/></g></g></g><g fill="#000000" fill-opacity="1"><g transform="translate(471.873321, 705.161169)"><g><path d="M 6.136719 0.253906 C 7.703125 0.253906 9.144531 -0.0898438 10.277344 -1.171875 L 10.277344 -3.871094 C 10.277344 -4.570312 10.746094 -4.859375 11.304688 -4.859375 L 11.304688 -5.164062 L 7.324219 -5.164062 L 7.324219 -4.859375 C 7.867188 -4.84375 8.425781 -4.609375 8.425781 -3.886719 L 8.425781 -0.46875 L 8.335938 -0.433594 C 7.777344 -0.234375 7.074219 -0.144531 6.515625 -0.144531 C 3.277344 -0.144531 2.269531 -3.132812 2.269531 -5.832031 C 2.269531 -7.992188 3.328125 -11.539062 6.101562 -11.539062 C 7.613281 -11.539062 8.730469 -10.386719 9.414062 -9.199219 C 9.574219 -8.964844 9.757812 -8.640625 9.863281 -8.335938 L 10.152344 -8.335938 L 9.882812 -10.53125 C 9.863281 -10.546875 9.847656 -10.585938 9.808594 -10.601562 C 9.773438 -10.65625 9.71875 -10.710938 9.71875 -10.710938 C 8.855469 -11.59375 7.453125 -11.84375 6.226562 -11.84375 C 2.429688 -11.84375 0.304688 -9.324219 0.304688 -5.578125 C 0.304688 -1.890625 2.464844 0.253906 6.136719 0.253906 Z M 6.136719 0.253906 "/></g></g></g></svg>